Coordinates
version=1
nRows=19
nColumns=33
inDegrees=yes

Units are S.I. units (second, meters, Newtons, ...)
Angles are in degrees.

endheader
time	ground_thorax_rot_x	ground_thorax_rot_y	ground_thorax_rot_z	ground_thorax_tx	ground_thorax_ty	ground_thorax_tz	clav_prot_r	clav_elev_r	scapula_abduction_r	scapula_elevation_r	scapula_upward_rot_r	scapula_winging_r	shoulder_elv_r	plane_of_elev_r	axial_rot_r	elbow_flexion_r	pro_sup_r	wrist_flex_r	wrist_dev_r	clav_prot_l	clav_elev_l	scapula_abduction_l	scapula_elevation_l	scapula_upward_rot_l	scapula_winging_l	shoulder_elv_l	plane_of_elev_l	axial_rot_l	elbow_flexion_l	pro_sup_l	wrist_flex_l	wrist_dev_l
      3.16000000	     -4.97194671	      3.14436837	     10.20058905	     -0.09280719	      1.02918047	      0.00678342	     16.89841174	     -9.97769099	     44.99970746	    -11.63050519	     26.88120795	    -14.58031442	     -2.49373087	    -50.71148340	    121.86422542	    -32.27287340	   -124.51907909	     -2.82713658	      4.36581520	     27.65200754	    -10.49531175	    -41.97659176	     -5.38844944	    -23.08271993	     15.53789829	     57.80469778	      1.73793639	      6.72763784	     11.55296000	     14.15722868	     14.25867690	     -4.69351746
      3.17000000	     -4.72152149	      3.60985274	     10.02516867	     -0.09147394	      1.03032875	      0.00708924	     16.47055618	    -10.11505043	     45.00000000	    -11.98913972	     27.84884610	    -14.32951480	     -3.66184388	    -51.65756497	    120.63525484	    -31.68331319	   -125.89786671	     -0.59487388	      0.82289125	     27.10104703	    -11.35591982	    -40.91448393	     -4.98738634	    -23.68483385	     14.60128278	     58.86822295	      1.73557376	      5.97829011	     11.78175011	     13.95478177	     13.39930060	     -6.21053251
      3.18000000	     -4.74691234	      3.90063654	     10.00787052	     -0.09138405	      1.03029791	      0.00729868	     16.49569321	    -10.12197548	     44.99700128	    -11.98003624	     27.78828818	    -14.33562015	     -3.65823769	    -51.69105956	    120.65928066	    -31.61182973	   -125.91876453	     -0.60123618	      0.81113407	     27.06219875	    -11.32276965	    -40.86012578	     -4.98638357	    -23.61709989	     14.57890833	     58.86433230	      1.81597996	      6.01258015	     11.87016668	     13.93719170	     13.39797354	     -6.22744316
      3.19000000	     -4.63636592	      4.15289161	      9.93976796	     -0.09123001	      1.03013828	      0.00743208	     16.52405580	    -10.11411469	     45.00000000	    -11.95867063	     27.72960697	    -14.35183451	     -3.49400083	    -51.84684819	    120.59452930	    -31.56146398	   -126.04016152	     -0.59389757	      0.70636424	     26.96492293	    -11.19719890	    -40.72228218	     -5.07040259	    -23.56044543	     14.52809977	     58.70283700	      2.01851715	      6.08065548	     12.17983590	     13.89259918	     13.39088139	     -6.30816740
      3.20000000	     -4.66316493	      4.22815677	      9.90959259	     -0.09078772	      1.02969815	      0.00764218	     16.61558073	    -10.08119017	     45.00000000	    -11.87935916	     27.52382029	    -14.40898411	     -3.59849219	    -51.93798822	    120.70167542	    -31.82791867	   -126.66606905	     -0.37885532	      0.33363093	     26.68878600	    -10.85839886	    -40.32217870	     -5.32698131	    -23.46808627	     14.36565927	     58.51660218	      2.06359600	      6.47391182	     12.70512834	     13.81380874	     13.24062441	     -6.53108989
      3.21000000	     -4.57129850	      4.43048806	      9.93777209	     -0.09096527	      1.02955386	      0.00774870	     16.67716771	    -10.07358457	     45.00000000	    -11.83886183	     27.38554668	    -14.43899150	     -3.47631460	    -52.15536324	    120.57864701	    -31.83943640	   -127.00253199	     -0.32935742	      0.22792871	     26.56525039	    -10.84742045	    -40.12368585	     -5.33205120	    -23.44387421	     14.24580193	     58.39778151	      2.14435070	      6.61097878	     12.91708265	     13.81575315	     13.16403509	     -6.62092563
      3.22000000	     -4.41459547	      4.23986143	      9.74866426	     -0.09017935	      1.02987036	      0.00782581	     16.76642508	    -10.27718633	     45.00000000	    -11.96212394	     27.20039964	    -14.35170117	     -3.39095641	    -52.65349359	    121.26104968	    -32.05153679	   -133.04707836	      0.64870814	     -0.66529623	     25.57903496	    -10.97952760	    -38.50260702	     -5.17409983	    -23.21264593	     13.21067833	     58.67361868	      1.90943391	      6.91314247	     13.05643786	     14.67332725	     12.15211468	     -7.46246031
      3.23000000	     -4.31631186	      4.33084526	      9.75000612	     -0.09038948	      1.02958639	      0.00797781	     16.86630072	    -10.23706166	     45.00000000	    -11.86986076	     26.97137313	    -14.41724118	     -3.30866121	    -52.86130722	    121.10856555	    -32.26057479	   -133.21122456	      0.65881801	     -0.81290235	     25.47477158	    -10.88722142	    -38.33965975	     -5.28234289	    -23.26716060	     13.13211534	     58.56116014	      1.91411156	      7.18302208	     13.60808550	     14.59359270	     12.17467201	     -7.57237411
      3.24000000	     -4.26193702	      4.34471382	      9.76350200	     -0.09033103	      1.02926056	      0.00834759	     16.96336688	    -10.13602826	     44.85618320	    -11.67838973	     26.53833755	    -14.48049896	     -3.45154905	    -52.89585265	    120.83498146	    -32.88982298	   -133.69438220	      0.80038484	     -0.88614921	     25.27846163	    -10.80881628	    -38.01936358	     -5.40061386	    -23.35597374	     12.94891486	     58.55548216	      1.72161528	      7.83055806	     14.39343946	     14.48580294	     12.12792540	     -7.74619006
      3.25000000	     -4.16877568	      4.34129452	      9.82642467	     -0.09034411	      1.02903420	      0.00869072	     17.01536320	    -10.04130506	     44.64139742	    -11.49166409	     26.10239002	    -14.50221114	     -3.63533311	    -52.98136687	    120.51685778	    -33.53043758	   -134.45884847	      0.99626894	     -0.78372088	     25.05747414	    -10.79534442	    -37.64748571	     -5.48865758	    -23.49550228	     12.71707706	     58.55598415	      1.51003600	      8.46917997	     15.15007197	     14.44796587	     12.06334860	     -7.93630403
      3.26000000	     -4.11152706	      4.31192687	      9.81708390	     -0.09032395	      1.02879869	      0.00906749	     17.03347716	     -9.94169145	     44.37857778	    -11.30176055	     25.67091525	    -14.49999355	     -3.90126326	    -53.05008003	    120.21661032	    -34.36557285	   -135.48341236	      1.28561924	     -0.53645993	     24.81635493	    -10.77019664	    -37.24247315	     -5.59896658	    -23.65901803	     12.46568582	     58.66347821	      1.25884123	      9.10694983	     16.01767651	     14.46858264	     11.98880277	     -8.17293788
      3.27000000	     -4.08661968	      3.82594785	      9.76639156	     -0.09043350	      1.02888679	      0.00884826	     17.43083984	    -10.47672811	     44.86911520	    -11.69924690	     25.52245131	    -14.46966562	     -4.14631815	    -54.16524708	    120.89198055	    -35.22234745	   -143.49656161	      1.85970085	      0.04743314	     23.92276331	    -10.67519331	    -35.76185073	     -5.84056257	    -23.90219339	     11.57772797	     59.14751450	      1.08315174	      9.88462214	     16.70699153	     16.12680668	     12.50644223	     -8.89324298
      3.28000000	     -3.98029302	      3.84224950	      9.77959806	     -0.09056153	      1.02872020	      0.00933531	     17.41450997	    -10.26940253	     44.39916424	    -11.35930557	     24.85343278	    -14.46382176	     -4.38498232	    -54.03317598	    120.53977116	    -36.28166270	   -143.88472906	      2.15881429	     -0.06979924	     23.72482119	    -10.73517279	    -35.41909120	     -5.86645592	    -24.04537718	     11.34835956	     59.23686556	      0.73503330	     10.45103155	     17.57975399	     16.08213848	     12.42383839	     -9.09935720
      3.29000000	     -3.91329734	      3.80297186	      9.82907411	     -0.09067380	      1.02849446	      0.00969453	     17.34334611	    -10.14156895	     43.90668320	    -11.10947175	     24.28096848	    -14.38067671	     -4.76402418	    -54.10738362	    120.33714958	    -37.43805554	   -144.48532448	      2.52888040	      0.05767777	     23.50704228	    -10.69599726	    -35.04809255	     -6.03591193	    -24.31327918	     11.11950974	     59.32211098	      0.36337713	     10.98855419	     18.73215416	     16.07842821	     12.40297792	     -9.38000187
      3.30000000	     -3.92656497	      3.79605779	      9.85847485	     -0.09083384	      1.02909204	      0.00978985	     17.30748000	    -10.77099315	     43.26479815	    -11.43034061	     23.46669535	    -13.82394121	     -5.05360484	    -54.69057594	    119.95264657	    -38.93839222	   -147.96338458	      3.21717759	      1.32165104	     23.12970799	    -10.96055394	    -34.37070827	     -6.03982317	    -24.76675763	     10.62577908	     59.96436205	     -0.18702984	     11.18215630	     19.96387584	     16.95831909	     13.05604592	     -9.85451864
      3.31000000	     -3.82722036	      3.72031013	      9.74917528	     -0.09094178	      1.02869113	      0.01006925	     17.16113861	    -10.53514967	     42.76235984	    -11.12486413	     23.04118961	    -13.77239049	     -5.44120258	    -54.80803360	    119.91379058	    -40.26266627	   -148.27088549	      3.54370872	      1.22362824	     22.91011729	    -10.68902267	    -34.02848726	     -6.37907198	    -24.97105077	     10.47682926	     59.89118164	     -0.37836618	     11.86999747	     21.27115035	     16.84067638	     13.02494576	    -10.13217346
      3.32000000	     -3.75970880	      3.65395011	      9.80822944	     -0.09110902	      1.02838007	      0.01036521	     17.05880828	    -10.37017449	     42.19273110	    -10.82351998	     22.41702308	    -13.67174605	     -6.00675736	    -55.03709317	    119.83542255	    -41.81075467	   -148.72527897	      3.95671635	      1.22848135	     22.67744773	    -10.49934786	    -33.64992265	     -6.69717932	    -25.27749377	     10.27728195	     59.86700638	     -0.74771360	     12.46244121	     22.63660450	     16.76557837	     13.05422307	    -10.43119239
      3.33000000	     -3.66112375	      3.59930517	      9.84801115	     -0.09130382	      1.02815786	      0.01060380	     16.97148352	    -10.27348824	     41.60901030	    -10.56114996	     21.73890557	    -13.53231054	     -6.55416038	    -55.36795594	    119.67388789	    -43.48658355	   -149.30689292	      4.41514163	      1.28821061	     22.44631405	    -10.34200916	    -33.27045676	     -7.01587693	    -25.64316078	     10.06434680	     59.87760471	     -1.15608260	     12.91503253	     24.12476872	     16.70950188	     13.15046409	    -10.75512466
      3.34000000	     -3.59199469	      3.53933736	      9.90876763	     -0.09154437	      1.02797126	      0.01083137	     16.89257130	    -10.22562236	     41.00133262	    -10.32132785	     21.00571504	    -13.35678673	     -7.18255833	    -55.78418664	    119.51155041	    -45.29088616	   -149.99943875	      4.92041188	      1.38414650	     22.21177170	    -10.18970056	    -32.88451218	     -7.35014210	    -26.04963170	      9.84176584	     59.94655098	     -1.65767205	     13.28999362	     25.69557748	     16.64754548	     13.30442277	    -11.08757685
